<svg xmlns="http://www.w3.org/2000/svg" version="1.1" xmlns:xlink="http://www.w3.org/1999/xlink" xmlns:svgjs="http://svgjs.dev/svgjs" width="1500" height="935" viewBox="0 0 1500 935"><g transform="matrix(1,0,0,1,-0.9090909090909918,0.3785425101214628)"><svg viewBox="0 0 396 247" data-background-color="#ffffff" preserveAspectRatio="xMidYMid meet" height="935" width="1500" xmlns="http://www.w3.org/2000/svg" xmlns:xlink="http://www.w3.org/1999/xlink"><g id="tight-bounds" transform="matrix(1,0,0,1,0.2400000000000091,-0.09999999999999432)"><svg viewBox="0 0 395.52 247.2" height="247.2" width="395.52"><g><svg></svg></g><g><svg viewBox="0 0 395.52 247.2" height="247.2" width="395.52"><g transform="matrix(1,0,0,1,75.54432,86.99866614623026)"><svg viewBox="0 0 244.43135999999998 73.20266770753946" height="73.20266770753946" width="244.43135999999998"><g><svg viewBox="0 0 435.46567151548277 130.4139078144" height="73.20266770753946" width="244.43135999999998"><g transform="matrix(1,0,0,1,191.0343115154828,15.732871021428465)"><svg viewBox="0 0 244.43135999999998 98.94816577154307" height="98.94816577154307" width="244.43135999999998"><g id="textblocktransform"><svg viewBox="0 0 244.43135999999998 98.94816577154307" height="98.94816577154307" width="244.43135999999998" id="textblock"><g><svg viewBox="0 0 244.43135999999998 98.94816577154307" height="98.94816577154307" width="244.43135999999998"><g transform="matrix(1,0,0,1,0,0)"><svg width="244.43135999999998" viewBox="2.85 -39.65 99.79 40.4" height="98.94816577154307" data-palette-color="#000000"><path d="M2.85-37.05L9-37.7 9 0 2.85 0 2.85-37.05ZM16.35-26.45L22.35-26.45 15.35-14.75 22.95 0 16.35 0 9.25-14.45 16.35-26.45ZM25.5-26.45L31.65-26.45 31.65 0 25.5 0 25.5-26.45ZM28.55-39.65Q30.2-39.65 31.22-38.6 32.25-37.55 32.25-35.9L32.25-35.9Q32.25-34.3 31.22-33.25 30.2-32.2 28.55-32.2L28.55-32.2Q26.9-32.2 25.87-33.25 24.85-34.3 24.85-35.9L24.85-35.9Q24.85-37.55 25.87-38.6 26.9-39.65 28.55-39.65L28.55-39.65ZM54.25-6.4Q54.25-5.1 54.6-4.48 54.95-3.85 55.75-3.45L55.75-3.45 54.5 0.65Q52.45 0.4 51.22-0.45 50-1.3 49.4-3.05L49.4-3.05Q47.1 0.75 42.95 0.75L42.95 0.75Q39.65 0.75 37.7-1.48 35.75-3.7 35.75-7.4L35.75-7.4Q35.75-11.7 38.42-13.95 41.1-16.2 46.2-16.2L46.2-16.2 48.25-16.2 48.25-18.05Q48.25-20.55 47.37-21.58 46.5-22.6 44.55-22.6L44.55-22.6Q42.2-22.6 38.7-21.3L38.7-21.3 37.3-25.3Q39.3-26.2 41.45-26.68 43.6-27.15 45.55-27.15L45.55-27.15Q54.25-27.15 54.25-18.35L54.25-18.35 54.25-6.4ZM44.6-3.7Q47-3.7 48.25-7L48.25-7 48.25-12.55 46.8-12.55Q44.25-12.55 43.07-11.4 41.9-10.25 41.9-7.85L41.9-7.85Q41.9-5.8 42.6-4.75 43.3-3.7 44.6-3.7L44.6-3.7ZM60.04-37.05L66.19-37.7 66.19 0 60.04 0 60.04-37.05ZM73.54-26.45L79.54-26.45 72.54-14.75 80.14 0 73.54 0 66.44-14.45 73.54-26.45ZM92.09-27.15Q97.09-27.15 99.87-23.65 102.64-20.15 102.64-13.25L102.64-13.25Q102.64-6.65 99.84-2.95 97.04 0.75 92.09 0.75L92.09 0.75Q87.14 0.75 84.34-2.88 81.54-6.5 81.54-13.25L81.54-13.25Q81.54-19.95 84.34-23.55 87.14-27.15 92.09-27.15L92.09-27.15ZM92.09-22.5Q89.94-22.5 88.94-20.38 87.94-18.25 87.94-13.25L87.94-13.25Q87.94-8.2 88.94-6.08 89.94-3.95 92.09-3.95L92.09-3.95Q94.24-3.95 95.24-6.08 96.24-8.2 96.24-13.25L96.24-13.25Q96.24-18.3 95.24-20.4 94.24-22.5 92.09-22.5L92.09-22.5Z" opacity="1" transform="matrix(1,0,0,1,0,0)" fill="#000000" class="wordmark-text-0" data-fill-palette-color="primary" id="text-0"></path></svg></g></svg></g></svg></g></svg></g><g><svg viewBox="0 0 167.6750243328 130.4139078144" height="130.4139078144" width="167.6750243328"><g><svg xmlns:x="http://ns.adobe.com/Extensibility/1.0/" xmlns:i="http://ns.adobe.com/AdobeIllustrator/10.0/" xmlns:graph="http://ns.adobe.com/Graphs/1.0/" xmlns="http://www.w3.org/2000/svg" xmlns:xlink="http://www.w3.org/1999/xlink" version="1.1" x="0" y="0" viewBox="5 11 54 42" enable-background="new 0 0 64 64" xml:space="preserve" height="130.4139078144" width="167.6750243328" class="icon-icon-0" data-fill-palette-color="accent" id="icon-0"><g fill="#000000" data-fill-palette-color="accent"><g fill="#000000" data-fill-palette-color="accent"><path d="M11 39h42V17H11V39zM37.293 26.707c-0.391-0.391-0.391-1.023 0-1.414s1.023-0.391 1.414 0l2 2c0.391 0.391 0.391 1.023 0 1.414l-2 2C38.512 30.902 38.256 31 38 31s-0.512-0.098-0.707-0.293c-0.391-0.391-0.391-1.023 0-1.414L38.586 28 37.293 26.707zM29.105 31.553l4-8c0.248-0.494 0.848-0.694 1.342-0.447s0.694 0.848 0.447 1.342l-4 8C30.719 32.798 30.366 33 29.999 33c-0.15 0-0.303-0.034-0.446-0.105C29.059 32.647 28.858 32.047 29.105 31.553zM23.293 27.293l2-2c0.391-0.391 1.023-0.391 1.414 0s0.391 1.023 0 1.414L25.414 28l1.293 1.293c0.391 0.391 0.391 1.023 0 1.414C26.512 30.902 26.256 31 26 31s-0.512-0.098-0.707-0.293l-2-2C22.902 28.316 22.902 27.684 23.293 27.293z" fill="#000000" data-fill-palette-color="accent"></path><path d="M58 11H6c-0.552 0-1 0.448-1 1v32c0 0.553 0.448 1 1 1h25v6h-7c-0.552 0-1 0.447-1 1s0.448 1 1 1h16c0.553 0 1-0.447 1-1s-0.447-1-1-1h-7v-6h25c0.553 0 1-0.447 1-1V12C59 11.448 58.553 11 58 11zM55 40c0 0.553-0.447 1-1 1H10c-0.552 0-1-0.447-1-1V16c0-0.552 0.448-1 1-1h44c0.553 0 1 0.448 1 1V40z" fill="#000000" data-fill-palette-color="accent"></path></g></g></svg><g></g></g></svg></g></svg></g></svg></g><g><path d="M0 123.6c0-68.262 55.338-123.6 123.6-123.6 53.082 0 98.349 33.462 115.856 80.443l-2.677 0c-17.386-45.569-61.503-77.938-113.179-77.939-66.879 0-121.096 54.216-121.096 121.096 0 66.879 54.216 121.096 121.096 121.096 51.677 0 95.793-32.369 113.179-77.939l2.677 0c-17.508 46.981-62.774 80.443-115.856 80.443-68.262 0-123.6-55.338-123.6-123.6z" fill="#000000" stroke="transparent" data-fill-palette-color="tertiary"></path></g></svg></g><defs></defs></svg><rect width="395.52" height="247.2" fill="none" stroke="none" visibility="hidden"></rect></g></svg></g></svg>